<?xml version="1.0" encoding="UTF-8" ?>
<svg viewBox="0 0 788 547" version="1.1" xmlns="http://www.w3.org/2000/svg">
  <g >
  <path d=" M 458.27 1.37 C 473.21 3.44 494.81 -6.20 504.65 9.29 C 508.21 17.33 504.35 25.39 501.92 32.99 C 448.52 191.75 396.49 351.26 343.08 510.01 C 338.13 522.85 336.52 542.92 319.72 545.53 C 305.02 543.89 285.07 552.38 274.19 538.79 C 268.60 528.77 275.71 518.59 278.08 509.01 C 331.83 349.29 384.31 188.81 437.92 28.99 C 440.73 17.77 445.42 4.32 458.27 1.37 Z" />
  <path d=" M 155.93 91.03 C 168.25 91.15 174.30 103.27 182.78 110.22 C 189.50 115.16 191.03 125.46 186.24 132.23 C 147.51 179.30 108.87 226.17 70.24 273.20 C 109.46 320.67 149.99 367.87 189.69 415.26 C 192.34 423.79 189.71 433.90 182.25 439.24 C 171.86 449.24 156.31 464.36 142.17 449.83 C 96.82 395.20 51.06 340.92 5.75 286.25 C -0.59 280.42 -1.15 268.83 4.27 262.25 C 50.07 207.39 95.92 152.56 141.68 97.69 C 145.39 93.57 150.62 91.88 155.93 91.03 Z" />
  <path d=" M 618.68 96.64 C 627.24 87.55 642.87 90.77 648.96 101.05 C 693.28 154.38 737.83 207.51 782.27 260.74 C 785.74 263.37 786.01 267.85 788.00 271.37 L 788.00 274.62 C 786.16 278.04 786.41 282.57 783.25 285.26 C 736.89 340.25 691.03 395.68 644.80 450.78 C 638.60 459.36 625.00 458.10 618.71 450.29 C 608.99 441.61 589.83 431.86 598.00 416.00 C 636.19 367.94 676.47 321.10 714.67 273.23 C 676.12 225.88 637.12 178.90 598.37 131.69 C 592.03 115.82 608.09 104.98 618.68 96.64 Z" />
  </g>
</svg>
