<?xml version="1.0" encoding="UTF-8" ?>
<!DOCTYPE svg PUBLIC "-//W3C//DTD SVG 1.1//EN" "http://www.w3.org/Graphics/SVG/1.1/DTD/svg11.dtd">
<svg viewBox="0 0 1024 1024" version="1.1" xmlns="http://www.w3.org/2000/svg">
<g id="#010101fe">
<path stroke-width="10" d=" M 90.32 79.43 C 191.84 78.41 293.45 79.33 395.00 78.97 C 419.48 80.47 442.99 93.43 458.43 111.67 C 471.19 131.81 484.63 151.51 497.30 171.71 C 499.16 173.50 499.91 176.57 504.00 173.98 C 644.00 174.04 784.00 173.96 924.00 174.02 C 946.71 175.21 965.35 195.14 968.95 217.02 C 969.07 387.02 968.96 557.01 969.01 727.01 C 969.13 743.94 958.13 759.86 942.95 766.89 C 928.19 772.94 911.75 771.05 896.27 770.65 C 882.75 768.90 881.91 746.92 895.04 744.04 C 909.26 742.54 925.93 748.12 937.99 737.99 C 943.78 729.74 941.65 719.40 942.00 710.00 C 942.00 584.67 942.00 459.33 942.00 334.00 C 659.67 334.00 377.33 334.00 95.00 334.00 C 95.01 465.67 94.99 597.34 95.01 729.01 C 96.08 738.01 105.21 744.34 114.00 743.98 C 202.24 744.21 290.50 743.62 378.73 744.27 C 390.64 748.38 389.59 768.82 376.70 770.62 C 288.49 771.49 200.23 770.78 112.00 770.98 C 90.71 770.74 70.71 754.43 68.05 732.98 C 67.93 524.65 68.05 316.32 67.98 107.99 C 67.03 94.58 76.88 81.43 90.32 79.43 M 95.00 106.00 C 95.00 173.00 95.00 240.00 95.00 307.00 C 376.67 307.00 658.33 307.00 940.00 307.00 C 939.82 276.42 940.36 245.83 939.73 215.27 C 936.41 209.48 931.90 203.36 925.02 202.00 C 781.01 201.98 637.00 202.03 493.00 201.98 C 488.61 202.01 483.55 200.96 480.75 197.25 C 465.47 174.20 450.44 150.95 435.03 127.98 C 424.39 114.27 407.11 106.92 390.00 106.02 C 291.67 105.97 193.33 106.02 95.00 106.00 Z" />
<path d=" M 483.30 383.38 C 487.64 382.70 492.45 384.34 495.26 387.75 C 546.66 438.85 596.31 491.44 647.95 542.26 C 701.43 495.66 752.61 445.94 808.08 401.09 C 825.43 389.04 850.66 392.88 865.25 407.75 C 877.92 421.77 890.51 435.78 903.23 449.76 C 920.37 466.12 922.44 497.51 903.77 513.77 C 854.46 559.24 804.42 603.88 754.97 649.22 C 808.05 704.67 862.45 758.95 916.27 813.73 C 921.97 818.43 922.80 827.26 917.86 832.85 C 870.26 879.63 822.73 926.45 774.93 972.92 C 765.89 982.64 752.54 972.86 747.02 963.98 C 693.60 909.62 639.92 855.46 586.71 800.92 C 550.12 833.79 514.40 867.90 476.93 899.94 C 416.41 926.11 356.17 953.28 295.70 979.69 C 283.83 982.62 275.89 967.10 282.97 957.99 C 314.49 901.60 346.35 845.41 378.16 789.17 C 412.65 757.99 446.76 726.34 481.03 694.86 C 435.56 646.27 386.64 600.47 340.77 552.23 C 333.26 546.57 325.20 535.97 333.14 527.15 C 375.69 485.72 418.15 444.28 460.28 402.33 C 468.93 397.37 473.30 386.07 483.30 383.38 M 485.21 416.19 C 445.04 456.50 404.18 496.04 363.89 536.21 C 375.65 547.61 386.30 559.85 397.94 571.29 C 426.58 545.75 452.14 516.22 481.12 491.19 C 493.79 484.50 507.36 502.24 496.86 512.85 C 470.15 538.51 443.64 564.39 417.70 590.96 C 428.74 601.75 438.68 615.60 450.94 623.98 C 467.33 609.25 482.98 593.08 499.71 578.67 C 511.18 571.61 525.16 587.09 517.71 597.76 C 502.51 613.26 486.75 628.26 471.84 644.00 C 483.03 655.20 493.49 666.94 504.70 678.08 C 532.47 651.93 558.58 623.41 587.06 598.04 C 598.92 590.53 612.77 606.73 604.71 617.75 C 577.71 644.09 550.87 670.63 523.97 697.14 C 534.80 708.53 545.11 720.32 556.70 731.07 C 571.26 716.22 585.81 701.15 601.01 687.03 C 610.68 677.37 629.24 690.53 621.95 702.95 C 608.27 720.07 591.34 734.66 575.89 750.20 C 585.57 762.46 597.96 772.31 607.91 784.26 C 635.86 759.11 662.14 730.64 690.00 705.01 C 701.45 696.43 716.45 712.49 708.71 723.74 C 682.23 751.12 654.05 776.47 627.70 803.97 C 638.80 815.12 649.43 826.57 660.14 838.03 C 676.15 823.15 690.90 806.67 707.00 792.01 C 717.97 783.93 733.10 800.34 724.95 810.94 C 710.59 826.83 694.49 841.37 679.70 856.97 C 690.77 868.57 702.31 879.77 713.70 891.08 C 740.64 865.01 766.92 837.87 794.19 812.20 C 806.18 801.66 823.42 820.40 812.61 831.68 C 785.68 857.34 759.80 884.51 732.71 909.94 C 743.91 921.59 755.38 933.14 767.11 944.24 C 807.24 904.51 847.84 865.37 888.13 825.80 C 754.19 688.99 619.89 552.17 485.21 416.19 M 826.30 421.37 C 804.08 434.53 788.26 457.17 767.87 473.20 C 789.11 496.73 809.76 520.77 830.96 544.32 C 846.29 530.43 861.80 516.91 877.00 503.00 C 887.00 496.77 894.15 482.48 885.93 472.04 C 874.12 456.42 859.67 442.90 847.10 427.91 C 842.03 422.25 834.05 419.15 826.30 421.37 M 744.32 493.32 C 718.72 515.79 693.94 539.02 668.71 561.96 C 676.09 570.39 683.63 578.68 691.96 586.30 C 717.59 563.32 742.93 539.99 768.28 516.98 C 759.84 509.79 753.05 498.44 744.32 493.32 M 786.30 538.29 C 761.25 560.81 735.93 583.13 710.95 605.71 C 719.21 613.59 727.48 621.64 735.17 630.07 C 760.68 607.93 785.68 585.05 810.24 561.89 C 802.07 554.53 795.28 543.13 786.30 538.29 M 500.24 714.26 C 469.16 741.77 438.57 770.22 407.87 798.20 C 415.04 806.08 421.97 814.14 429.97 821.30 C 460.87 792.81 492.75 765.56 523.25 736.89 C 515.62 729.33 508.34 721.17 500.24 714.26 M 541.21 756.20 C 510.26 784.68 478.04 811.83 447.70 840.96 C 455.91 849.59 463.08 859.15 471.90 867.23 C 503.90 839.52 534.74 810.29 566.11 781.79 C 557.28 773.69 550.43 763.76 541.21 756.20 M 391.31 819.84 C 369.72 858.88 347.72 898.03 325.94 937.09 C 366.86 919.72 407.51 901.34 448.05 882.97 C 430.00 861.14 409.88 841.28 391.31 819.84 Z" />
<path d=" M 142.29 423.31 C 216.49 422.63 290.74 423.12 364.96 423.06 C 378.17 425.79 378.20 447.20 364.97 449.97 C 291.41 449.83 217.74 450.39 144.25 449.69 C 130.98 447.54 129.44 426.83 142.29 423.31 Z" />
<path d=" M 142.29 531.31 C 193.83 530.61 245.41 531.16 296.97 531.03 C 310.43 533.74 309.60 555.24 296.70 557.62 C 245.93 558.26 194.98 558.23 144.27 557.65 C 130.91 555.78 129.23 534.82 142.29 531.31 Z" />
<path d=" M 143.30 640.38 C 217.16 639.53 291.08 640.18 364.95 640.05 C 378.16 642.79 378.20 664.20 364.97 666.97 C 291.33 667.01 217.68 667.04 144.05 666.95 C 130.57 664.59 129.61 642.56 143.30 640.38 Z" />
</g>
</svg>
