<svg xmlns="http://www.w3.org/2000/svg" viewBox="0 0 64 64"><path d="M31 2C21.819 2 13.627 6.295 8.309 12.975c-.05.05-.11.09-.149.154-.013.02-.014.045-.025.066A28.843 28.843 0 002 31a28.848 28.848 0 006.14 17.813c.01.017.01.038.022.056.055.087.123.16.197.223C13.68 55.735 21.85 60 31 60c9.208 0 17.422-4.318 22.738-11.031.031-.036.07-.062.096-.102.009-.013.009-.029.016-.043C57.698 43.902 60 37.717 60 31c0-6.716-2.3-12.9-6.146-17.82-.008-.015-.008-.033-.018-.047-.028-.044-.073-.07-.106-.11C48.414 6.314 40.204 2 31 2zm-1 2.08v13.906c-3.818-.068-7.49-.518-10.828-1.314C21.532 9.512 25.556 4.712 30 4.08zm2 0c4.443.632 8.468 5.433 10.828 12.592-3.339.795-7.011 1.246-10.828 1.314V4.08zm-8.088.871c-2.774 2.448-5.106 6.306-6.691 11.201-2.48-.72-4.739-1.637-6.684-2.736a27.036 27.036 0 0113.375-8.465zm14.174 0a27.037 27.037 0 0113.377 8.465c-1.944 1.099-4.205 2.015-6.684 2.736-1.586-4.895-3.918-8.753-6.693-11.2zm-28.81 10.04c2.136 1.242 4.631 2.276 7.38 3.075a46.313 46.313 0 00-1.021 4.776 1 1 0 101.972.314c.255-1.599.594-3.12.989-4.57 3.524.85 7.391 1.331 11.402 1.4V23a1 1 0 102 0v-3.014c4.011-.069 7.88-.55 11.404-1.4.395 1.45.734 2.97.989 4.57a1 1 0 101.975-.314 45.951 45.951 0 00-1.024-4.774c2.749-.8 5.245-1.833 7.383-3.076A26.842 26.842 0 0158 31a26.857 26.857 0 01-5.275 16.01c-2.14-1.244-4.638-2.28-7.39-3.08.329-1.203.62-2.45.856-3.752a1 1 0 00-1.967-.357 43.518 43.518 0 01-.814 3.593c-3.526-.85-7.397-1.331-11.41-1.4V40a1 1 0 10-2 0v2.014c-4.013.069-7.884.55-11.41 1.4a43.518 43.518 0 01-.815-3.594 1 1 0 10-1.967.36 44.59 44.59 0 00.856 3.752c-2.752.8-5.25 1.833-7.39 3.078A26.864 26.864 0 014 31a26.857 26.857 0 015.275-16.01zM20.89 25.003a.998.998 0 00-.848.709l-2.148 7.158-1.957-5.223a1.002 1.002 0 00-1.876 0l-1.957 5.223-2.148-7.158a1 1 0 00-1.914.574l3 10a.997.997 0 00.924.711c.447.036.82-.245.97-.646L15 30.848l2.063 5.504c.146.39.521.648.937.648h.033a1 1 0 00.924-.713l3-10a.999.999 0 00-.67-1.244.996.996 0 00-.396-.04zm16 0a.998.998 0 00-.848.709l-2.148 7.158-1.958-5.223a1.002 1.002 0 00-1.875 0l-1.957 5.223-2.148-7.158a1 1 0 00-1.914.574l3 10a.997.997 0 00.924.711c.432.036.82-.245.97-.646L31 30.848l2.063 5.504c.146.39.521.648.937.648h.033a1 1 0 00.924-.713l3-10a.999.999 0 00-.67-1.244.996.996 0 00-.396-.04zm16 0a.998.998 0 00-.848.709l-2.148 7.158-1.958-5.223a1.002 1.002 0 00-1.874 0l-1.958 5.223-2.148-7.158a1 1 0 00-1.914.574l3 10a.997.997 0 00.924.711c.454.036.82-.245.97-.646L47 30.848l2.063 5.504c.146.39.521.648.937.648h.033a1 1 0 00.924-.713l3-10a.999.999 0 00-.67-1.244.996.996 0 00-.396-.04zM30 44.014v13.91c-4.467-.622-8.483-5.373-10.842-12.594 3.342-.798 7.02-1.248 10.842-1.316zm2 0c3.822.068 7.5.52 10.842 1.318-2.36 7.22-6.375 11.97-10.842 12.592v-13.91zm-14.762 1.828c1.598 4.892 3.947 8.771 6.73 11.222a27.04 27.04 0 01-13.43-8.48c1.948-1.102 4.214-2.02 6.7-2.742zm27.524 0c2.486.722 4.752 1.64 6.7 2.742a27.04 27.04 0 01-13.43 8.48c2.782-2.45 5.132-6.33 6.73-11.222z"/></svg>